inDegrees=no
num_controls=7
num_derivatives=13
num_iterations=92
num_multipliers=7
num_parameters=0
num_slacks=7
num_states=26
objective=0.453156
objective_accelerations=0.020076
objective_balance=0.001683
objective_effort=0.015057
objective_height=0.411162
objective_ligament=0.005178
solver_duration=1446.909419
status=Solve_Succeeded
success=true
DataType=double
version=3
OpenSimVersion=4.5
endheader
time	/jointset/ground_pelvis/pelvis_tilt/value	/jointset/ground_pelvis/pelvis_tx/value	/jointset/ground_pelvis/pelvis_ty/value	/jointset/hip_l/hip_flexion_l/value	/jointset/hip_l/hip_adduction_l/value	/jointset/hip_l/hip_rotation_l/value	/jointset/back/lumbar_extension/value	/jointset/patellofemoral_l/patellar_flexion_l/value	/jointset/knee_l/knee_flexion_l/value	/jointset/knee_l/knee_adduction_l/value	/jointset/knee_l/knee_rotation_l/value	/jointset/ankle_l/ankle_angle_l/value	/jointset/subtalar_l/subtalar_angle_l/value	/jointset/ground_pelvis/pelvis_tilt/speed	/jointset/ground_pelvis/pelvis_tx/speed	/jointset/ground_pelvis/pelvis_ty/speed	/jointset/hip_l/hip_flexion_l/speed	/jointset/hip_l/hip_adduction_l/speed	/jointset/hip_l/hip_rotation_l/speed	/jointset/back/lumbar_extension/speed	/jointset/patellofemoral_l/patellar_flexion_l/speed	/jointset/knee_l/knee_flexion_l/speed	/jointset/knee_l/knee_adduction_l/speed	/jointset/knee_l/knee_rotation_l/speed	/jointset/ankle_l/ankle_angle_l/speed	/jointset/subtalar_l/subtalar_angle_l/speed	/forceset/tau_hip_flexion_l	/forceset/tau_hip_adduction_l	/forceset/tau_hip_rotation_l	/forceset/tau_knee_flexion_l	/forceset/tau_ankle_angle_l	/forceset/tau_subtalar_angle_l	/forceset/tau_lumbar_extension	lambda_cid13_p0	lambda_cid13_p1	lambda_cid13_p2	lambda_cid13_p3	lambda_cid13_p4	lambda_cid13_p5	lambda_cid14_p0	/jointset/ground_pelvis/pelvis_tilt/accel	/jointset/ground_pelvis/pelvis_tx/accel	/jointset/ground_pelvis/pelvis_ty/accel	/jointset/hip_l/hip_flexion_l/accel	/jointset/hip_l/hip_adduction_l/accel	/jointset/hip_l/hip_rotation_l/accel	/jointset/back/lumbar_extension/accel	/jointset/patellofemoral_l/patellar_flexion_l/accel	/jointset/knee_l/knee_flexion_l/accel	/jointset/knee_l/knee_adduction_l/accel	/jointset/knee_l/knee_rotation_l/accel	/jointset/ankle_l/ankle_angle_l/accel	/jointset/subtalar_l/subtalar_angle_l/accel	gamma_cid13_p0	gamma_cid13_p1	gamma_cid13_p2	gamma_cid13_p3	gamma_cid13_p4	gamma_cid13_p5	gamma_cid14_p0
1.5	-0.03356739541223041	0.1191590971760808	0.8431870863779342	0.405100904559033	-0.4364507704268831	-0.323196363265782	-0.1525223801146885	0.5994948895353726	0.599494889535127	-0.1741352632609348	-0.15693839074335	0.2564844664030145	0.05909465696832481	-0.193775319530466	-0.006134756526216808	0.2075482371175715	-0.5806372460543504	0.2637418922152004	-0.5009546615093868	0.3303109807013275	-1.418854881002347	-1.418854881002346	0.0002371594353794449	0.09550739533669948	-0.7147468750704422	-0.1163046303681223	0.009545866296827698	0.02678149066324662	-0.01393569265335831	-0.2457563346278943	-0.02307540332183508	0.005059727289856457	0.03669263633056555	-41.7351086152966	0.9220392666110031	4.300829137997471	8.085936395400969	-537.1739200387833	-66.77311045375434	-34.53592219723524	-0.192257003161394	-0.1487143747484644	-0.2010251677321021	-0.04161821855649169	0.4728606829592847	-0.09034669235986073	0.14312026378397	-1.250269678459013	-1.250269678458894	0.003061178398481807	0.1894020798610384	-0.8445267692337513	0.1138543210533235	-4.784367089573619e-08	1.87392981991517e-07	1.748340862965303e-07	6.43537474807375e-08	-9.202861850552211e-08	-4.341669917559418e-08	-6.979113815564929e-09
1.51	-0.03551483541686241	0.1190903684464564	0.8452519677979321	0.3992938206705594	-0.4337900681430151	-0.3282101507363316	-0.1492120726377161	0.5852462009288544	0.5852462009290029	-0.1741324800400306	-0.1559745616108505	0.2492959783279508	0.05793756620984032	-0.1956830626127829	-0.007605939586297349	0.205381473258253	-0.5806985549550884	0.2683644632736774	-0.501731160517887	0.3317107938589571	-1.430677391369403	-1.430677391369399	0.0003151240423224272	0.09723572063344703	-0.7228400965978707	-0.1150925149052519	0.009852220327637174	0.02538069950383082	-0.01379847618399138	-0.2419225855439901	-0.02137644686960525	0.004924903357624247	0.03598760288918056	-41.11079937093543	0.8010287814011706	4.400366631096598	7.752544732168902	-535.6373818468431	-66.85119506418216	-35.07073786011564	-0.1855989109301786	-0.1455500190570799	-0.2315040361968542	0.02374855618903829	0.4517987829091805	-0.06055345598559344	0.1324537165635116	-1.117424209836143	-1.117424209835749	0.009550452218175791	0.1611639900335672	-0.7751207114888696	0.1279949540060472	-4.212149001173405e-08	1.955966053924218e-07	1.448796832979772e-07	6.405656533556565e-08	-8.40817901444395e-08	-2.122788305313771e-08	-2.92142875806479e-09
1.52	-0.03748046604234749	0.1190070819367473	0.847293781171104	0.3934885508494884	-0.4310841714554369	-0.3332295535871463	-0.1458889586542035	0.5708854507198662	0.5708854507204071	-0.1741290399029909	-0.1549941259782834	0.2420298778642145	0.05679321756500517	-0.1974134437016371	-0.009046312543151282	0.2029346277523487	-0.5802744325749682	0.2727807729568446	-0.5020777375620057	0.3328722820090285	-1.441267201496747	-1.441267201496741	0.0003685426643042185	0.09882869534827107	-0.7302693528049575	-0.1137562076382965	0.01015857435848434	0.02397990834441144	-0.01366125971467235	-0.2380888364600707	-0.01967749041737482	0.004790079425388445	0.03528256944783024	-40.49545363312217	0.6835749449859341	4.497067496496992	7.437514139037804	-534.230075782206	-66.94969412533011	-35.58968354856043	-0.1567846044688536	-0.1425523541031316	-0.2570414970492632	0.05546803761508822	0.431608407897355	-0.004362299483536544	0.09545526227233932	-1.003729630516597	-1.003729630516741	-0.001848018593765662	0.1623319634763372	-0.7117337051653985	0.1386926818703029	-4.169806387734963e-08	2.09955141760326e-07	1.378735542200172e-07	6.656541412061025e-08	-8.309270605869625e-08	-1.173387710381657e-08	-1.334643355504575e-09
1.53	-0.03946252257063254	0.1189095576071109	0.8493097472232055	0.3876900000239409	-0.4283351843783911	-0.3382503608173262	-0.1425554065721699	0.5564251194193499	0.5564251194197373	-0.1741251414421046	-0.1539985425071247	0.2346928916311271	0.05566285002509722	-0.1989650785389746	-0.01045218242165617	0.2002147411283352	-0.5793555543775679	0.2769777484734213	-0.5020103992640806	0.3337955285666748	-1.450581361629854	-1.450581361629886	0.0004057789766139202	0.1002648160086189	-0.7370091825182895	-0.1122978764565483	0.01048429960843237	0.02252555949843361	-0.01353773745156526	-0.2342609892717548	-0.0177822658877717	0.00462079506607572	0.03457337462282628	-39.81440477467223	0.5745448533014776	4.586757635388218	7.059251345268174	-532.7633735540511	-67.02265934455035	-36.09003060216128	-0.1494469242974102	-0.1386336613548401	-0.2860570608973214	0.1221106408458173	0.4078566754815979	0.02327344852044057	0.08436847780271763	-0.8626040723730533	-0.8626040723787008	0.005754080904215865	0.1308028236155197	-0.6372980173120492	0.1522601128376668	-4.690456466443397e-08	2.30853273155667e-07	1.55249966182687e-07	7.205567076900979e-08	-8.949622526550101e-08	-1.572810696345155e-08	-2.373188836318004e-09
1.54	-0.04145911424747456	0.1187981687073634	0.8512971954459029	0.3819030405663825	-0.425545404635789	-0.3432682963537109	-0.1392139001994998	0.5418781775439705	0.5418781775442049	-0.1741210216931526	-0.1529892876880945	0.2272920690183276	0.05454763715230908	-0.2003204734135655	-0.01181922656539378	0.1972310618715489	-0.5779561589784371	0.2809393060677463	-0.501503398802558	0.3344631401359981	-1.458589316469573	-1.458589316469642	0.0004128002793591429	0.1015629649210257	-0.7430366287474195	-0.1107252742143772	0.01081002485842805	0.02107121065245662	-0.01341421518849497	-0.2304331420834204	-0.01588704135816495	0.004451510706767169	0.03386417979786171	-39.14252788851672	0.4691870883228225	4.67350227993103	6.698931249751173	-531.4307055791915	-67.11632542735026	-36.56901301768381	-0.1175366119195402	-0.1347872071496672	-0.3098000236038219	0.1515714779611589	0.3845248234469943	0.08357013323597157	0.04432826460774499	-0.7424885718390297	-0.7424885718388322	-0.007891020506671393	0.1347376138881179	-0.5692570083250383	0.1615468939548718	-5.014447494587874e-08	2.470871605206761e-07	1.653846819074815e-07	7.561530917043748e-08	-9.198718459389487e-08	-1.675766693343139e-08	-2.87775653394808e-09
1.55	-0.04346827116577227	0.1186733073892369	0.8532535218868961	0.3761325010186062	-0.4227172188535209	-0.3482790341562443	-0.1358670010893925	0.5272578009922766	0.5272578009926669	-0.1741169428311645	-0.1519678132135892	0.2198345946230119	0.05344871529889528	-0.2014786455787433	-0.01314627620974155	0.1939933925288908	-0.5760660782947745	0.2846553577757537	-0.5005741371082852	0.3348750428989047	-1.465254421184397	-1.46525442118448	0.0004024685488025695	0.1027047929594762	-0.7483321330915821	-0.1090398049478831	0.01113433896388421	0.01955516302999571	-0.01330125836025733	-0.2265667574412633	-0.01390039623958022	0.004284562015025343	0.03316762836272068	-38.43848819693555	0.3591560013384201	4.758738597464247	6.300362656454171	-530.059940056918	-67.22090023716882	-37.0238278680791	-0.1101307951878019	-0.1306341770738975	-0.3368932292594622	0.2205619684230898	0.3587169472888156	0.1081034055395518	0.03337543409975525	-0.5937849774360061	-0.5937849774382781	0.002374823451647579	0.09986264120552191	-0.4907764097699057	0.1748800205308188	-5.111853094908672e-08	2.579470275898685e-07	1.671757041408114e-07	7.695053959165858e-08	-8.997019449716333e-08	-1.437141159576527e-08	-2.767088959649543e-09
1.56	-0.04548804446099335	0.1185353815078675	0.8551762430665302	0.3703834293986436	-0.4198531582336088	-0.3532783794982335	-0.1325172321212612	0.5125777206822075	0.5125777206827573	-0.1741129714719334	-0.1509357290102194	0.2123279493317931	0.05236721475365348	-0.2024437487987624	-0.01443213921395846	0.1905100095997508	-0.5736625734169423	0.2881142735962063	-0.4992249066933463	0.3350371117405166	-1.470530068144496	-1.470530068144594	0.0003912997295185004	0.1036849106932056	-0.7528708079280657	-0.1072410125800238	0.01145865306939019	0.01803911540753778	-0.01318830153203409	-0.2227003727990886	-0.01191375112099045	0.004117613323290997	0.03247107692761884	-37.74309735760566	0.2529487109574283	4.840727629482044	5.918053477905787	-528.8167454976914	-67.34477554947824	-37.45324336411603	-0.07892282288781091	-0.1265498791234908	-0.358942740900225	0.2542563167951029	0.3330976459360209	0.1675638773692504	-0.005638519651168831	-0.4645970208940383	-0.4645970208940028	-0.008058438252180557	0.1023955529439051	-0.4178911067892342	0.1842115142279052	-4.463732897496308e-08	2.687907105057833e-07	1.43401780982714e-07	7.512680851051463e-08	-7.443457014389947e-08	7.513487069835141e-09	2.392210725255966e-10
1.57	-0.04751630441973202	0.1183848220909028	0.8570629775078857	0.3646606112103277	-0.4169558542525457	-0.3582620380034467	-0.1291673139204583	0.497851709344581	0.4978517093447592	-0.1741093221465048	-0.1498945452542846	0.2047796785531758	0.05130417121140637	-0.2031761718602216	-0.01567172481177276	0.1867999312285821	-0.5708134444982612	0.2913005630022446	-0.497437852041358	0.3349045708911697	-1.474430354964008	-1.474430354964042	0.0003411903406004666	0.1045242010796864	-0.7566502963840522	-0.1053484570222313	0.01182039848693871	0.01639279743739674	-0.0130980818746723	-0.2189176557645675	-0.009748838274287934	0.003976379414475376	0.0317626225777683	-36.98989108663325	0.1272420142491235	4.923778673094836	5.473314341441057	-527.5874721136499	-67.51747038324498	-37.85928148483313	-0.06560294879452219	-0.1214467888612401	-0.3825871669637065	0.3133713758797334	0.3044607191885981	0.1946276475972104	-0.02335549695496676	-0.316469985915948	-0.3164699859063862	-0.003044296891155973	0.07055749864894906	-0.3380141100943373	0.1946121557493726	-2.883705452917502e-08	2.796141632301013e-07	8.767167608533283e-08	6.935437555141441e-08	-4.200065296997032e-08	5.377168989535317e-08	6.865084177046455e-09
1.58	-0.0495509287892867	0.1182221100402099	0.8589115018091821	0.3589689103505003	-0.4140280741511704	-0.3632257556844453	-0.1258199798540231	0.4830939500440709	0.4830939500438831	-0.1741060853365086	-0.148845796251053	0.1971976056109805	0.05026062014057629	-0.2037166309624679	-0.01686266595962752	0.182867981587896	-0.5674391077205775	0.294209497658314	-0.4952367418500249	0.334520284866682	-1.476879660720967	-1.476879660720937	0.0003087966445016095	0.1051979601521175	-0.7596312406436774	-0.1033425182966614	0.01218214390454267	0.01474647946726023	-0.01300786221731551	-0.2151349387300278	-0.007583925427579142	0.003835145505669838	0.03105416822796017	-36.2423262792741	0.005221063750010843	5.00316071456044	5.038904664102222	-526.441423547209	-67.70425523438911	-38.24150752422936	-0.04053003104522466	-0.1168209891315826	-0.4033169948037407	0.3592978885956158	0.2776266959422267	0.250374985238238	-0.05598755467931358	-0.1744008083834485	-0.1744008083834809	-0.004515299688355101	0.06928929013396908	-0.2581822675169583	0.206888147783356	-1.559459309236303e-08	2.9002294148896e-07	4.136136318515919e-08	6.461216550450346e-08	-1.38761566439853e-08	9.305442973280137e-08	1.243628894905453e-08
